<?xml version="1.0" encoding="UTF-8" standalone="no"?>
<!-- Created with Inkscape (http://www.inkscape.org/) -->

<svg
   width="512"
   height="512"
   viewBox="0 0 512 512"
   version="1.1"
   id="svg1"
   xml:space="preserve"
   xmlns="http://www.w3.org/2000/svg"
   xmlns:svg="http://www.w3.org/2000/svg"><defs
     id="defs1" /><g
     id="layer1"><rect
       style="fill:#e3d5ca;fill-opacity:1"
       id="rect1"
       width="512"
       height="512"
       x="0"
       y="0"
       rx="80"
       ry="80" /><path
       d="m 279.05626,432.31249 32.55001,8.13752 V 445.875 H 200.39374 v -5.42499 l 32.55001,-8.13752 V 76.975002 h -56.9625 q 0,22.785 -9.2225,42.314998 -9.22249,19.53 -23.32751,33.635 h -5.425 q 0.5425,-7.0525 1.08501,-14.6475 0.54249,-6.51 1.085,-13.77949 0.54251,-7.37802 0.54251,-14.97302 0,-10.307486 -0.54251,-18.227997 -0.5425,-7.811986 -1.085,-13.779493 -0.54249,-6.510004 -1.08501,-11.3925 h 235.98752 q -1.085,4.882496 -1.62749,11.3925 -0.54253,5.967507 -0.7595,13.779493 -0.32553,7.920511 -0.32553,18.227997 0,7.595 0.32553,14.97302 0.21697,7.26949 0.7595,13.77949 0.54249,7.595 1.62749,14.6475 h -5.42499 Q 354.46376,138.82 345.24125,119.29 336.01876,99.760002 336.01876,76.975002 h -56.9625 z"
       id="path1"
       style="fill:#372c24;fill-opacity:1;stroke-width:10.85" /></g></svg>
